<mxfile host="app.diagrams.net" modified="2024-01-19T12:07:42.635Z" agent="Mozilla/5.0 (Windows NT 10.0; Win64; x64) AppleWebKit/537.36 (KHTML, like Gecko) Chrome/120.0.0.0 Safari/537.36" etag="3GLRNRmsbdgVvmU8ZSE0" version="22.1.21" type="github">
  <diagram id="6I0OCvxSQrVGMHxT2VVA" name="Page-1">
    <mxGraphModel dx="1562" dy="861" grid="1" gridSize="10" guides="1" tooltips="1" connect="1" arrows="1" fold="1" page="1" pageScale="1" pageWidth="850" pageHeight="1100" math="0" shadow="0">
      <root>
        <mxCell id="0" />
        <mxCell id="1" parent="0" />
        <mxCell id="VlUCXaoxYk9hjqGgWemj-1" value="" style="rounded=1;whiteSpace=wrap;html=1;fillColor=#f8cecc;strokeColor=#b85450;" vertex="1" parent="1">
          <mxGeometry x="430" y="140" width="850" height="160" as="geometry" />
        </mxCell>
        <mxCell id="VlUCXaoxYk9hjqGgWemj-2" value="" style="rounded=1;whiteSpace=wrap;html=1;fillColor=#dae8fc;strokeColor=#6c8ebf;" vertex="1" parent="1">
          <mxGeometry x="430" y="350" width="850" height="250" as="geometry" />
        </mxCell>
        <mxCell id="VlUCXaoxYk9hjqGgWemj-3" value="" style="rounded=1;whiteSpace=wrap;html=1;fillColor=#d5e8d4;strokeColor=#82b366;" vertex="1" parent="1">
          <mxGeometry x="430" y="630" width="850" height="140" as="geometry" />
        </mxCell>
        <mxCell id="VlUCXaoxYk9hjqGgWemj-12" value="&lt;b&gt;&lt;font style=&quot;font-size: 15px;&quot;&gt;提出问题&lt;/font&gt;&lt;/b&gt;" style="rounded=0;whiteSpace=wrap;html=1;fillColor=none;strokeWidth=2;" vertex="1" parent="1">
          <mxGeometry x="470" y="190" width="150" height="40" as="geometry" />
        </mxCell>
        <mxCell id="VlUCXaoxYk9hjqGgWemj-13" value="&lt;b&gt;&lt;font style=&quot;font-size: 15px;&quot;&gt;提出问题&lt;/font&gt;&lt;/b&gt;" style="rounded=0;whiteSpace=wrap;html=1;fillColor=none;strokeWidth=2;" vertex="1" parent="1">
          <mxGeometry x="470" y="455" width="150" height="40" as="geometry" />
        </mxCell>
        <mxCell id="VlUCXaoxYk9hjqGgWemj-14" value="&lt;b&gt;&lt;font style=&quot;font-size: 15px;&quot;&gt;方法验证与总结&lt;/font&gt;&lt;/b&gt;" style="rounded=0;whiteSpace=wrap;html=1;fillColor=none;strokeWidth=2;" vertex="1" parent="1">
          <mxGeometry x="470" y="680" width="150" height="40" as="geometry" />
        </mxCell>
        <mxCell id="VlUCXaoxYk9hjqGgWemj-15" value="核心：" style="rounded=1;whiteSpace=wrap;html=1;" vertex="1" parent="1">
          <mxGeometry x="700" y="180" width="120" height="60" as="geometry" />
        </mxCell>
        <mxCell id="VlUCXaoxYk9hjqGgWemj-16" value="目标一：" style="rounded=1;whiteSpace=wrap;html=1;" vertex="1" parent="1">
          <mxGeometry x="700" y="370" width="120" height="60" as="geometry" />
        </mxCell>
        <mxCell id="VlUCXaoxYk9hjqGgWemj-17" value="目标二：" style="rounded=1;whiteSpace=wrap;html=1;" vertex="1" parent="1">
          <mxGeometry x="700" y="490" width="120" height="60" as="geometry" />
        </mxCell>
        <mxCell id="VlUCXaoxYk9hjqGgWemj-18" value="目标三：" style="rounded=1;whiteSpace=wrap;html=1;" vertex="1" parent="1">
          <mxGeometry x="700" y="660" width="120" height="60" as="geometry" />
        </mxCell>
        <mxCell id="VlUCXaoxYk9hjqGgWemj-19" value="" style="rounded=1;whiteSpace=wrap;html=1;fillColor=none;dashed=1;" vertex="1" parent="1">
          <mxGeometry x="670" y="110" width="170" height="740" as="geometry" />
        </mxCell>
        <mxCell id="VlUCXaoxYk9hjqGgWemj-20" value="&lt;b&gt;&lt;font style=&quot;font-size: 15px;&quot;&gt;研究目标&lt;/font&gt;&lt;/b&gt;" style="text;html=1;strokeColor=none;fillColor=none;align=center;verticalAlign=middle;whiteSpace=wrap;rounded=0;" vertex="1" parent="1">
          <mxGeometry x="710" y="800" width="100" height="30" as="geometry" />
        </mxCell>
        <mxCell id="VlUCXaoxYk9hjqGgWemj-22" value="" style="rounded=1;whiteSpace=wrap;html=1;fillColor=none;dashed=1;" vertex="1" parent="1">
          <mxGeometry x="880" y="120" width="170" height="740" as="geometry" />
        </mxCell>
        <mxCell id="VlUCXaoxYk9hjqGgWemj-21" value="&lt;b&gt;&lt;font style=&quot;font-size: 15px;&quot;&gt;研究内容&lt;/font&gt;&lt;/b&gt;" style="text;html=1;strokeColor=none;fillColor=none;align=center;verticalAlign=middle;whiteSpace=wrap;rounded=0;" vertex="1" parent="1">
          <mxGeometry x="915" y="810" width="100" height="30" as="geometry" />
        </mxCell>
        <mxCell id="VlUCXaoxYk9hjqGgWemj-24" value="" style="rounded=1;whiteSpace=wrap;html=1;fillColor=none;dashed=1;" vertex="1" parent="1">
          <mxGeometry x="1095" y="120" width="170" height="740" as="geometry" />
        </mxCell>
        <mxCell id="VlUCXaoxYk9hjqGgWemj-23" value="&lt;b&gt;&lt;font style=&quot;font-size: 15px;&quot;&gt;研究方法&lt;/font&gt;&lt;/b&gt;" style="text;html=1;strokeColor=none;fillColor=none;align=center;verticalAlign=middle;whiteSpace=wrap;rounded=0;" vertex="1" parent="1">
          <mxGeometry x="1130" y="810" width="100" height="30" as="geometry" />
        </mxCell>
      </root>
    </mxGraphModel>
  </diagram>
</mxfile>
